<svg width="127" height="66" viewBox="0 0 127 66" fill="none" xmlns="http://www.w3.org/2000/svg">
<path d="M0.816063 66V65.08H2.74806C4.22006 65.08 5.44673 64.8653 6.42806 64.436C7.47073 64.0067 8.2374 63.332 8.72806 62.412C9.21873 61.4307 9.46406 60.1733 9.46406 58.64V7.396C9.46406 5.924 9.21873 4.728 8.72806 3.80799C8.2374 2.888 7.47073 2.244 6.42806 1.876C5.44673 1.44666 4.22006 1.23199 2.74806 1.23199H0.816063V0.311996H28.9681V1.23199H27.0361C25.6254 1.23199 24.3987 1.44666 23.3561 1.876C22.3134 2.30533 21.5161 3.01066 20.9641 3.992C20.4734 4.912 20.2281 6.13866 20.2281 7.672V50.452L49.1161 13.744V7.672C49.1161 6.13866 48.8401 4.912 48.2881 3.992C47.7974 3.01066 47.0614 2.30533 46.0801 1.876C45.0987 1.44666 43.8414 1.23199 42.3081 1.23199H40.3761V0.311996H68.5281V1.23199H66.5961C65.1854 1.23199 63.9587 1.44666 62.9161 1.876C61.9347 2.244 61.1681 2.888 60.6161 3.80799C60.1254 4.728 59.8801 5.924 59.8801 7.396V58.64C59.8801 60.1733 60.1254 61.4307 60.6161 62.412C61.1681 63.332 61.9347 64.0067 62.9161 64.436C63.9587 64.8653 65.1854 65.08 66.5961 65.08H68.5281V66H40.3761V65.08H42.3081C43.8414 65.08 45.0987 64.8653 46.0801 64.436C47.0614 64.0067 47.7974 63.332 48.2881 62.412C48.8401 61.4307 49.1161 60.1733 49.1161 58.64V15.216L20.2281 51.924V58.64C20.2281 60.1733 20.4734 61.4307 20.9641 62.412C21.5161 63.332 22.3134 64.0067 23.3561 64.436C24.3987 64.8653 25.6254 65.08 27.0361 65.08H28.9681V66H0.816063ZM76.775 66V65.08H78.707C80.179 65.08 81.4057 64.8653 82.387 64.436C83.4297 64.0067 84.1963 63.332 84.687 62.412C85.239 61.4307 85.515 60.1733 85.515 58.64V7.304C85.515 5.832 85.239 4.66666 84.687 3.80799C84.1963 2.888 83.4297 2.244 82.387 1.876C81.4057 1.44666 80.179 1.23199 78.707 1.23199H76.775V0.311996H103.271C111.244 0.311996 117.132 2.02933 120.935 5.464C124.738 8.89866 126.639 13.6213 126.639 19.632C126.639 22.392 126.179 25.0293 125.259 27.544C124.4 29.9973 122.959 32.2053 120.935 34.168C118.972 36.1307 116.366 37.6947 113.115 38.86C109.864 39.964 105.908 40.516 101.247 40.516H96.187V58.732C96.187 60.2653 96.463 61.492 97.015 62.412C97.567 63.332 98.3337 64.0067 99.315 64.436C100.358 64.8653 101.584 65.08 102.995 65.08H105.479V66H76.775ZM100.327 39.596C103.026 39.596 105.295 39.2587 107.135 38.584C109.036 37.848 110.57 36.7133 111.735 35.18C112.9 33.5853 113.759 31.5613 114.311 29.108C114.863 26.5933 115.139 23.588 115.139 20.092C115.139 15.5533 114.679 11.904 113.759 9.144C112.9 6.384 111.49 4.39066 109.527 3.164C107.564 1.876 104.958 1.23199 101.707 1.23199H96.187V39.596H100.327Z" fill="white"/>
</svg>
