<svg width="295" height="21" viewBox="0 0 295 21" fill="none" xmlns="http://www.w3.org/2000/svg">
<path d="M0.756 16V15.79H1.197C1.533 15.79 1.813 15.741 2.037 15.643C2.275 15.545 2.45 15.391 2.562 15.181C2.674 14.957 2.73 14.67 2.73 14.32V2.623C2.73 2.287 2.674 2.014 2.562 1.804C2.45 1.594 2.275 1.447 2.037 1.363C1.813 1.265 1.533 1.216 1.197 1.216H0.756V1.006H7.182V1.216H6.741C6.419 1.216 6.139 1.265 5.901 1.363C5.663 1.461 5.481 1.622 5.355 1.846C5.243 2.056 5.187 2.336 5.187 2.686V12.451L11.781 4.072V2.686C11.781 2.336 11.718 2.056 11.592 1.846C11.48 1.622 11.312 1.461 11.088 1.363C10.864 1.265 10.577 1.216 10.227 1.216H9.786V1.006H16.212V1.216H15.771C15.449 1.216 15.169 1.265 14.931 1.363C14.707 1.447 14.532 1.594 14.406 1.804C14.294 2.014 14.238 2.287 14.238 2.623V14.32C14.238 14.67 14.294 14.957 14.406 15.181C14.532 15.391 14.707 15.545 14.931 15.643C15.169 15.741 15.449 15.79 15.771 15.79H16.212V16H9.786V15.79H10.227C10.577 15.79 10.864 15.741 11.088 15.643C11.312 15.545 11.48 15.391 11.592 15.181C11.718 14.957 11.781 14.67 11.781 14.32V4.408L5.187 12.787V14.32C5.187 14.67 5.243 14.957 5.355 15.181C5.481 15.391 5.663 15.545 5.901 15.643C6.139 15.741 6.419 15.79 6.741 15.79H7.182V16H0.756ZM18.0945 16V15.79H18.5355C18.8715 15.79 19.1515 15.741 19.3755 15.643C19.6135 15.545 19.7885 15.391 19.9005 15.181C20.0265 14.957 20.0895 14.67 20.0895 14.32V2.602C20.0895 2.266 20.0265 2 19.9005 1.804C19.7885 1.594 19.6135 1.447 19.3755 1.363C19.1515 1.265 18.8715 1.216 18.5355 1.216H18.0945V1.006H24.1425C25.9625 1.006 27.3065 1.398 28.1745 2.182C29.0425 2.966 29.4765 4.044 29.4765 5.416C29.4765 6.046 29.3715 6.648 29.1615 7.222C28.9655 7.782 28.6365 8.286 28.1745 8.734C27.7265 9.182 27.1315 9.539 26.3895 9.805C25.6475 10.057 24.7445 10.183 23.6805 10.183H22.5255V14.341C22.5255 14.691 22.5885 14.971 22.7145 15.181C22.8405 15.391 23.0155 15.545 23.2395 15.643C23.4775 15.741 23.7575 15.79 24.0795 15.79H24.6465V16H18.0945ZM23.4705 9.973C24.0865 9.973 24.6045 9.896 25.0245 9.742C25.4585 9.574 25.8085 9.315 26.0745 8.965C26.3405 8.601 26.5365 8.139 26.6625 7.579C26.7885 7.005 26.8515 6.319 26.8515 5.521C26.8515 4.485 26.7465 3.652 26.5365 3.022C26.3405 2.392 26.0185 1.937 25.5705 1.657C25.1225 1.363 24.5275 1.216 23.7855 1.216H22.5255V9.973H23.4705ZM31.4144 16V15.79H31.8554C32.1914 15.79 32.4714 15.741 32.6954 15.643C32.9334 15.545 33.1084 15.391 33.2204 15.181C33.3324 14.957 33.3884 14.67 33.3884 14.32V2.623C33.3884 2.287 33.3324 2.014 33.2204 1.804C33.1084 1.594 32.9334 1.447 32.6954 1.363C32.4714 1.265 32.1914 1.216 31.8554 1.216H31.4144V1.006H37.8404V1.216H37.3994C37.0774 1.216 36.7974 1.265 36.5594 1.363C36.3214 1.461 36.1394 1.622 36.0134 1.846C35.9014 2.056 35.8454 2.336 35.8454 2.686V12.451L42.4394 4.072V2.686C42.4394 2.336 42.3764 2.056 42.2504 1.846C42.1384 1.622 41.9704 1.461 41.7464 1.363C41.5224 1.265 41.2354 1.216 40.8854 1.216H40.4444V1.006H46.8704V1.216H46.4294C46.1074 1.216 45.8274 1.265 45.5894 1.363C45.3654 1.447 45.1904 1.594 45.0644 1.804C44.9524 2.014 44.8964 2.287 44.8964 2.623V14.32C44.8964 14.67 44.9524 14.957 45.0644 15.181C45.1904 15.391 45.3654 15.545 45.5894 15.643C45.8274 15.741 46.1074 15.79 46.4294 15.79H46.8704V16H40.4444V15.79H40.8854C41.2354 15.79 41.5224 15.741 41.7464 15.643C41.9704 15.545 42.1384 15.391 42.2504 15.181C42.3764 14.957 42.4394 14.67 42.4394 14.32V4.408L35.8454 12.787V14.32C35.8454 14.67 35.9014 14.957 36.0134 15.181C36.1394 15.391 36.3214 15.545 36.5594 15.643C36.7974 15.741 37.0774 15.79 37.3994 15.79H37.8404V16H31.4144ZM48.7738 16V15.79H49.2148C49.5508 15.79 49.8308 15.741 50.0548 15.643C50.2928 15.545 50.4678 15.391 50.5798 15.181C50.6918 14.957 50.7478 14.67 50.7478 14.32V2.623C50.7478 2.287 50.6918 2.014 50.5798 1.804C50.4678 1.594 50.2928 1.447 50.0548 1.363C49.8308 1.265 49.5508 1.216 49.2148 1.216H48.7738V1.006H55.1998V1.216H54.7588C54.4368 1.216 54.1568 1.265 53.9188 1.363C53.6808 1.461 53.4988 1.622 53.3728 1.846C53.2608 2.056 53.2048 2.336 53.2048 2.686V8.062H59.6308V2.686C59.6308 2.336 59.5748 2.056 59.4628 1.846C59.3508 1.622 59.1828 1.461 58.9588 1.363C58.7348 1.265 58.4478 1.216 58.0978 1.216H57.6568V1.006H64.0828V1.216H63.6418C63.3198 1.216 63.0398 1.265 62.8018 1.363C62.5778 1.447 62.4028 1.594 62.2768 1.804C62.1508 2.014 62.0878 2.287 62.0878 2.623V14.32C62.0878 14.67 62.1508 14.957 62.2768 15.181C62.4028 15.391 62.5778 15.545 62.8018 15.643C63.0398 15.741 63.3198 15.79 63.6418 15.79H64.0828V16H57.6568V15.79H58.0978C58.4478 15.79 58.7348 15.741 58.9588 15.643C59.1828 15.545 59.3508 15.391 59.4628 15.181C59.5748 14.957 59.6308 14.67 59.6308 14.32V8.272H53.2048V14.32C53.2048 14.67 53.2608 14.957 53.3728 15.181C53.4988 15.391 53.6808 15.545 53.9188 15.643C54.1568 15.741 54.4368 15.79 54.7588 15.79H55.1998V16H48.7738ZM65.2547 16V15.79H65.9267C66.2347 15.79 66.4867 15.741 66.6827 15.643C66.8787 15.545 67.0537 15.384 67.2077 15.16C67.3617 14.922 67.5087 14.593 67.6487 14.173L72.3107 1.006H73.6547L78.7577 14.572C78.8837 14.88 79.0027 15.125 79.1147 15.307C79.2407 15.475 79.3807 15.601 79.5347 15.685C79.7027 15.755 79.8917 15.79 80.1017 15.79H80.3117V16H74.2217V15.79H74.8937C75.3557 15.79 75.6917 15.734 75.9017 15.622C76.1257 15.496 76.2377 15.279 76.2377 14.971C76.2377 14.887 76.2307 14.803 76.2167 14.719C76.2027 14.621 76.1817 14.516 76.1537 14.404C76.1397 14.278 76.1047 14.152 76.0487 14.026L74.7887 10.54H69.1817L68.0057 13.837C67.9497 13.963 67.9077 14.089 67.8797 14.215C67.8517 14.341 67.8237 14.46 67.7957 14.572C67.7817 14.67 67.7747 14.761 67.7747 14.845C67.7747 15.195 67.9147 15.44 68.1947 15.58C68.4887 15.72 68.9577 15.79 69.6017 15.79H70.3577V16H65.2547ZM69.2447 10.33H74.7047L73.2347 6.298C73.0807 5.85 72.9267 5.409 72.7727 4.975C72.6187 4.527 72.4717 4.093 72.3317 3.673C72.2057 3.253 72.0937 2.854 71.9957 2.476C71.8977 2.77 71.7997 3.057 71.7017 3.337C71.6177 3.617 71.5267 3.897 71.4287 4.177C71.3307 4.457 71.2257 4.744 71.1137 5.038C71.0017 5.332 70.8897 5.647 70.7777 5.983L69.2447 10.33ZM86.5987 16V15.79H87.0397C87.3757 15.79 87.6557 15.741 87.8797 15.643C88.1177 15.545 88.2927 15.391 88.4047 15.181C88.5307 14.957 88.5937 14.67 88.5937 14.32V2.602C88.5937 2.266 88.5307 2 88.4047 1.804C88.2927 1.594 88.1177 1.447 87.8797 1.363C87.6557 1.265 87.3757 1.216 87.0397 1.216H86.5987V1.006H92.6467C94.4667 1.006 95.8107 1.398 96.6787 2.182C97.5467 2.966 97.9807 4.044 97.9807 5.416C97.9807 6.046 97.8757 6.648 97.6657 7.222C97.4697 7.782 97.1407 8.286 96.6787 8.734C96.2307 9.182 95.6357 9.539 94.8937 9.805C94.1517 10.057 93.2487 10.183 92.1847 10.183H91.0297V14.341C91.0297 14.691 91.0927 14.971 91.2187 15.181C91.3447 15.391 91.5197 15.545 91.7437 15.643C91.9817 15.741 92.2617 15.79 92.5837 15.79H93.1507V16H86.5987ZM91.9747 9.973C92.5907 9.973 93.1087 9.896 93.5287 9.742C93.9627 9.574 94.3127 9.315 94.5787 8.965C94.8447 8.601 95.0407 8.139 95.1667 7.579C95.2927 7.005 95.3557 6.319 95.3557 5.521C95.3557 4.485 95.2507 3.652 95.0407 3.022C94.8447 2.392 94.5227 1.937 94.0747 1.657C93.6267 1.363 93.0317 1.216 92.2897 1.216H91.0297V9.973H91.9747ZM107.08 16.21C105.568 16.21 104.308 15.888 103.3 15.244C102.306 14.6 101.564 13.697 101.074 12.535C100.584 11.373 100.339 10.015 100.339 8.461C100.339 6.907 100.584 5.556 101.074 4.408C101.564 3.26 102.313 2.371 103.321 1.741C104.329 1.097 105.589 0.774999 107.101 0.774999C108.543 0.774999 109.761 1.097 110.755 1.741C111.763 2.371 112.526 3.267 113.044 4.429C113.562 5.577 113.821 6.928 113.821 8.482C113.821 10.036 113.555 11.394 113.023 12.556C112.505 13.704 111.742 14.6 110.734 15.244C109.74 15.888 108.522 16.21 107.08 16.21ZM107.08 16C107.794 16 108.403 15.86 108.907 15.58C109.425 15.286 109.845 14.838 110.167 14.236C110.503 13.62 110.748 12.836 110.902 11.884C111.07 10.932 111.154 9.798 111.154 8.482C111.154 7.166 111.07 6.039 110.902 5.101C110.748 4.149 110.51 3.372 110.188 2.77C109.866 2.154 109.446 1.706 108.928 1.426C108.424 1.132 107.815 0.984999 107.101 0.984999C106.387 0.984999 105.771 1.132 105.253 1.426C104.735 1.706 104.308 2.154 103.972 2.77C103.636 3.372 103.384 4.149 103.216 5.101C103.062 6.039 102.985 7.166 102.985 8.482C102.985 9.798 103.062 10.932 103.216 11.884C103.384 12.836 103.629 13.62 103.951 14.236C104.287 14.838 104.714 15.286 105.232 15.58C105.75 15.86 106.366 16 107.08 16ZM115.005 16V15.79H115.089C115.397 15.79 115.663 15.706 115.887 15.538C116.111 15.37 116.335 15.104 116.559 14.74C116.797 14.376 117.077 13.9 117.399 13.312L118.974 10.519C119.268 9.987 119.597 9.567 119.961 9.259C120.325 8.951 120.773 8.734 121.305 8.608C121.837 8.468 122.502 8.398 123.3 8.398C122.88 8.272 122.516 8.048 122.208 7.726C121.914 7.404 121.641 7.005 121.389 6.529C121.137 6.039 120.857 5.507 120.549 4.933C120.227 4.289 119.919 3.792 119.625 3.442C119.331 3.078 119.044 2.833 118.764 2.707C118.498 2.567 118.211 2.497 117.903 2.497C117.441 2.497 117.112 2.616 116.916 2.854C116.72 3.078 116.587 3.344 116.517 3.652C116.237 3.582 115.999 3.428 115.803 3.19C115.607 2.952 115.509 2.644 115.509 2.266C115.509 2 115.565 1.762 115.677 1.552C115.803 1.342 115.985 1.181 116.223 1.069C116.461 0.942999 116.762 0.879999 117.126 0.879999C117.686 0.879999 118.141 1.013 118.491 1.279C118.841 1.545 119.17 1.937 119.478 2.455C119.786 2.959 120.122 3.575 120.486 4.303C120.906 5.157 121.263 5.857 121.557 6.403C121.851 6.935 122.152 7.355 122.46 7.663C122.628 7.817 122.796 7.943 122.964 8.041C123.146 8.139 123.349 8.216 123.573 8.272C123.811 8.314 124.07 8.342 124.35 8.356V2.623C124.35 2.287 124.294 2.014 124.182 1.804C124.07 1.594 123.895 1.447 123.657 1.363C123.419 1.265 123.139 1.216 122.817 1.216H122.523V1.006H128.403V1.216H128.109C127.787 1.216 127.507 1.265 127.269 1.363C127.031 1.461 126.856 1.622 126.744 1.846C126.632 2.056 126.576 2.336 126.576 2.686V8.356C126.898 8.356 127.178 8.335 127.416 8.293C127.668 8.237 127.892 8.16 128.088 8.062C128.284 7.964 128.466 7.831 128.634 7.663C128.956 7.355 129.257 6.935 129.537 6.403C129.831 5.857 130.195 5.157 130.629 4.303C130.993 3.575 131.322 2.959 131.616 2.455C131.924 1.937 132.26 1.545 132.624 1.279C132.988 1.013 133.436 0.879999 133.968 0.879999C134.346 0.879999 134.654 0.942999 134.892 1.069C135.13 1.181 135.305 1.342 135.417 1.552C135.529 1.762 135.585 2 135.585 2.266C135.585 2.644 135.487 2.952 135.291 3.19C135.095 3.428 134.857 3.582 134.577 3.652C134.521 3.344 134.395 3.078 134.199 2.854C134.003 2.616 133.667 2.497 133.191 2.497C132.897 2.497 132.61 2.567 132.33 2.707C132.05 2.833 131.763 3.078 131.469 3.442C131.189 3.792 130.881 4.289 130.545 4.933C130.251 5.507 129.971 6.039 129.705 6.529C129.453 7.005 129.18 7.404 128.886 7.726C128.592 8.048 128.235 8.272 127.815 8.398C128.613 8.398 129.278 8.468 129.81 8.608C130.342 8.734 130.79 8.951 131.154 9.259C131.518 9.567 131.847 9.987 132.141 10.519L133.695 13.312C134.031 13.9 134.311 14.376 134.535 14.74C134.773 15.104 135.004 15.37 135.228 15.538C135.452 15.706 135.718 15.79 136.026 15.79H136.089V16H135.48C134.626 16 133.947 15.944 133.443 15.832C132.939 15.706 132.533 15.503 132.225 15.223C131.931 14.929 131.651 14.53 131.385 14.026L129.453 10.372C129.257 10.022 129.075 9.735 128.907 9.511C128.753 9.273 128.578 9.091 128.382 8.965C128.186 8.825 127.941 8.727 127.647 8.671C127.367 8.601 127.01 8.566 126.576 8.566V14.32C126.576 14.67 126.632 14.957 126.744 15.181C126.856 15.391 127.031 15.545 127.269 15.643C127.507 15.741 127.787 15.79 128.109 15.79H128.403V16H122.523V15.79H122.817C123.139 15.79 123.419 15.741 123.657 15.643C123.895 15.545 124.07 15.391 124.182 15.181C124.294 14.957 124.35 14.67 124.35 14.32V8.566C123.944 8.58 123.608 8.622 123.342 8.692C123.076 8.748 122.852 8.846 122.67 8.986C122.488 9.126 122.32 9.308 122.166 9.532C122.012 9.756 121.844 10.036 121.662 10.372L119.73 14.026C119.464 14.53 119.177 14.929 118.869 15.223C118.561 15.503 118.155 15.706 117.651 15.832C117.147 15.944 116.475 16 115.635 16H115.005ZM136.594 20.41V15.79H138.589C139.149 14.642 139.653 13.557 140.101 12.535C140.549 11.499 140.941 10.533 141.277 9.637C141.613 8.727 141.886 7.866 142.096 7.054C142.32 6.242 142.481 5.479 142.579 4.765C142.691 4.037 142.747 3.351 142.747 2.707C142.747 2.259 142.67 1.93 142.516 1.72C142.362 1.51 142.145 1.377 141.865 1.321C141.599 1.251 141.284 1.216 140.92 1.216H139.912V1.006H149.803V1.216H149.719C149.369 1.216 149.068 1.265 148.816 1.363C148.564 1.461 148.375 1.622 148.249 1.846C148.123 2.056 148.06 2.343 148.06 2.707V14.278C148.06 14.712 148.137 15.041 148.291 15.265C148.445 15.475 148.655 15.615 148.921 15.685C149.187 15.755 149.474 15.79 149.782 15.79H150.202V20.41H149.992C149.992 19.626 149.922 18.954 149.782 18.394C149.656 17.848 149.467 17.393 149.215 17.029C148.963 16.679 148.648 16.42 148.27 16.252C147.906 16.084 147.479 16 146.989 16H139.807C139.331 16 138.904 16.084 138.526 16.252C138.148 16.42 137.833 16.679 137.581 17.029C137.329 17.393 137.133 17.848 136.993 18.394C136.867 18.954 136.804 19.626 136.804 20.41H136.594ZM138.82 15.79H145.624V1.216H143.104C143.104 2.336 143.013 3.449 142.831 4.555C142.663 5.661 142.404 6.795 142.054 7.957C141.704 9.119 141.256 10.344 140.71 11.632C140.178 12.92 139.548 14.306 138.82 15.79ZM151.976 16V15.79H152.417C152.753 15.79 153.033 15.741 153.257 15.643C153.495 15.545 153.67 15.391 153.782 15.181C153.908 14.971 153.971 14.691 153.971 14.341V2.623C153.971 2.287 153.908 2.014 153.782 1.804C153.67 1.594 153.495 1.447 153.257 1.363C153.033 1.265 152.753 1.216 152.417 1.216H151.976V1.006H162.833L162.959 4.723H162.749L162.707 4.03C162.651 3.33 162.518 2.777 162.308 2.371C162.112 1.951 161.797 1.657 161.363 1.489C160.929 1.307 160.355 1.216 159.641 1.216H156.428V8.041H161.615V8.251H156.428V15.79H160.208C160.964 15.79 161.566 15.706 162.014 15.538C162.476 15.356 162.812 15.062 163.022 14.656C163.232 14.236 163.365 13.676 163.421 12.976L163.463 12.283H163.673L163.526 16H151.976ZM172.805 16.21C171.321 16.21 170.075 15.888 169.067 15.244C168.073 14.6 167.324 13.704 166.82 12.556C166.33 11.408 166.085 10.064 166.085 8.524C166.085 6.998 166.337 5.654 166.841 4.492C167.345 3.33 168.108 2.427 169.13 1.783C170.152 1.125 171.447 0.795999 173.015 0.795999C173.953 0.795999 174.744 0.907999 175.388 1.132C176.032 1.356 176.522 1.65 176.858 2.014C177.194 2.378 177.362 2.784 177.362 3.232C177.362 3.708 177.173 4.079 176.795 4.345C176.417 4.611 175.927 4.744 175.325 4.744C175.325 3.848 175.234 3.127 175.052 2.581C174.87 2.035 174.583 1.643 174.191 1.405C173.813 1.153 173.309 1.027 172.679 1.027C171.755 1.027 170.999 1.3 170.411 1.846C169.837 2.392 169.417 3.218 169.151 4.324C168.885 5.416 168.752 6.795 168.752 8.461C168.752 10.155 168.899 11.562 169.193 12.682C169.501 13.788 169.97 14.621 170.6 15.181C171.244 15.727 172.077 16 173.099 16C173.743 16 174.303 15.888 174.779 15.664C175.269 15.44 175.675 15.097 175.997 14.635C176.319 14.159 176.578 13.557 176.774 12.829C176.956 12.899 177.089 13.004 177.173 13.144C177.257 13.284 177.299 13.452 177.299 13.648C177.299 13.928 177.208 14.215 177.026 14.509C176.858 14.803 176.592 15.083 176.228 15.349C175.864 15.601 175.395 15.811 174.821 15.979C174.261 16.133 173.589 16.21 172.805 16.21ZM181.854 16V15.79H182.295C182.631 15.79 182.911 15.741 183.135 15.643C183.373 15.545 183.548 15.391 183.66 15.181C183.786 14.957 183.849 14.67 183.849 14.32V1.216H182.232C181.518 1.216 180.937 1.307 180.489 1.489C180.055 1.657 179.733 1.951 179.523 2.371C179.327 2.777 179.208 3.33 179.166 4.03L179.103 4.786H178.893L179.04 1.006H191.157L191.283 4.786H191.073L191.031 4.03C190.989 3.33 190.863 2.777 190.653 2.371C190.443 1.951 190.121 1.657 189.687 1.489C189.253 1.307 188.672 1.216 187.944 1.216H186.306V14.32C186.306 14.67 186.362 14.957 186.474 15.181C186.586 15.391 186.761 15.545 186.999 15.643C187.237 15.741 187.517 15.79 187.839 15.79H188.28V16H181.854ZM192.796 16V15.79H193.237C193.573 15.79 193.853 15.741 194.077 15.643C194.315 15.545 194.49 15.391 194.602 15.181C194.728 14.957 194.791 14.67 194.791 14.32V2.623C194.791 2.287 194.728 2.021 194.602 1.825C194.49 1.615 194.315 1.461 194.077 1.363C193.839 1.265 193.559 1.216 193.237 1.216H192.796V1.006H198.571C200.419 1.006 201.805 1.314 202.729 1.93C203.667 2.532 204.136 3.428 204.136 4.618C204.136 5.318 203.975 5.913 203.653 6.403C203.345 6.893 202.883 7.278 202.267 7.558C201.651 7.824 200.881 7.992 199.957 8.062V8.104C201.077 8.132 201.987 8.314 202.687 8.65C203.401 8.972 203.926 9.413 204.262 9.973C204.598 10.533 204.766 11.198 204.766 11.968C204.766 13.312 204.304 14.32 203.38 14.992C202.456 15.664 201.063 16 199.201 16H192.796ZM199.096 15.79C200.202 15.79 200.986 15.496 201.448 14.908C201.924 14.32 202.162 13.347 202.162 11.989C202.162 11.079 202.057 10.358 201.847 9.826C201.651 9.28 201.329 8.881 200.881 8.629C200.447 8.377 199.866 8.251 199.138 8.251H197.227V15.79H199.096ZM198.508 8.041C199.236 8.041 199.817 7.929 200.251 7.705C200.699 7.481 201.021 7.131 201.217 6.655C201.427 6.165 201.532 5.521 201.532 4.723C201.532 3.449 201.294 2.546 200.818 2.014C200.356 1.482 199.572 1.216 198.466 1.216H197.227V8.041H198.508ZM207.058 16V15.79H207.499C207.835 15.79 208.115 15.741 208.339 15.643C208.577 15.545 208.752 15.391 208.864 15.181C208.99 14.971 209.053 14.691 209.053 14.341V2.623C209.053 2.287 208.99 2.014 208.864 1.804C208.752 1.594 208.577 1.447 208.339 1.363C208.115 1.265 207.835 1.216 207.499 1.216H207.058V1.006H217.915L218.041 4.723H217.831L217.789 4.03C217.733 3.33 217.6 2.777 217.39 2.371C217.194 1.951 216.879 1.657 216.445 1.489C216.011 1.307 215.437 1.216 214.723 1.216H211.51V8.041H216.697V8.251H211.51V15.79H215.29C216.046 15.79 216.648 15.706 217.096 15.538C217.558 15.356 217.894 15.062 218.104 14.656C218.314 14.236 218.447 13.676 218.503 12.976L218.545 12.283H218.755L218.608 16H207.058ZM220.747 16V15.79H221.188C221.524 15.79 221.804 15.741 222.028 15.643C222.266 15.545 222.441 15.391 222.553 15.181C222.665 14.957 222.721 14.67 222.721 14.32V2.623C222.721 2.287 222.665 2.014 222.553 1.804C222.441 1.594 222.266 1.447 222.028 1.363C221.804 1.265 221.524 1.216 221.188 1.216H220.747V1.006H227.173V1.216H226.732C226.41 1.216 226.13 1.265 225.892 1.363C225.654 1.461 225.472 1.622 225.346 1.846C225.234 2.056 225.178 2.336 225.178 2.686V8.062H231.604V2.686C231.604 2.336 231.548 2.056 231.436 1.846C231.324 1.622 231.156 1.461 230.932 1.363C230.708 1.265 230.421 1.216 230.071 1.216H229.63V1.006H236.056V1.216H235.615C235.293 1.216 235.013 1.265 234.775 1.363C234.551 1.447 234.376 1.594 234.25 1.804C234.124 2.014 234.061 2.287 234.061 2.623V14.32C234.061 14.67 234.124 14.957 234.25 15.181C234.376 15.391 234.551 15.545 234.775 15.643C235.013 15.741 235.293 15.79 235.615 15.79H236.056V16H229.63V15.79H230.071C230.421 15.79 230.708 15.741 230.932 15.643C231.156 15.545 231.324 15.391 231.436 15.181C231.548 14.957 231.604 14.67 231.604 14.32V8.272H225.178V14.32C225.178 14.67 225.234 14.957 225.346 15.181C225.472 15.391 225.654 15.545 225.892 15.643C226.13 15.741 226.41 15.79 226.732 15.79H227.173V16H220.747ZM245.103 16.21C243.619 16.21 242.373 15.888 241.365 15.244C240.371 14.6 239.622 13.704 239.118 12.556C238.628 11.408 238.383 10.064 238.383 8.524C238.383 6.998 238.635 5.654 239.139 4.492C239.643 3.33 240.406 2.427 241.428 1.783C242.45 1.125 243.745 0.795999 245.313 0.795999C246.251 0.795999 247.042 0.907999 247.686 1.132C248.33 1.356 248.82 1.65 249.156 2.014C249.492 2.378 249.66 2.784 249.66 3.232C249.66 3.708 249.471 4.079 249.093 4.345C248.715 4.611 248.225 4.744 247.623 4.744C247.623 3.848 247.532 3.127 247.35 2.581C247.168 2.035 246.881 1.643 246.489 1.405C246.111 1.153 245.607 1.027 244.977 1.027C244.053 1.027 243.297 1.3 242.709 1.846C242.135 2.392 241.715 3.218 241.449 4.324C241.183 5.416 241.05 6.795 241.05 8.461C241.05 10.155 241.197 11.562 241.491 12.682C241.799 13.788 242.268 14.621 242.898 15.181C243.542 15.727 244.375 16 245.397 16C246.041 16 246.601 15.888 247.077 15.664C247.567 15.44 247.973 15.097 248.295 14.635C248.617 14.159 248.876 13.557 249.072 12.829C249.254 12.899 249.387 13.004 249.471 13.144C249.555 13.284 249.597 13.452 249.597 13.648C249.597 13.928 249.506 14.215 249.324 14.509C249.156 14.803 248.89 15.083 248.526 15.349C248.162 15.601 247.693 15.811 247.119 15.979C246.559 16.133 245.887 16.21 245.103 16.21ZM251.569 16V15.79H252.01C252.346 15.79 252.626 15.741 252.85 15.643C253.088 15.545 253.263 15.391 253.375 15.181C253.501 14.957 253.564 14.67 253.564 14.32V2.623C253.564 2.287 253.501 2.014 253.375 1.804C253.263 1.594 253.088 1.447 252.85 1.363C252.626 1.265 252.346 1.216 252.01 1.216H251.569V1.006H257.932V1.216H257.491C257.169 1.216 256.889 1.265 256.651 1.363C256.413 1.461 256.238 1.622 256.126 1.846C256.014 2.056 255.958 2.336 255.958 2.686V8.356C256.266 8.356 256.539 8.335 256.777 8.293C257.015 8.237 257.232 8.16 257.428 8.062C257.624 7.964 257.799 7.831 257.953 7.663C258.289 7.355 258.597 6.935 258.877 6.403C259.157 5.857 259.514 5.157 259.948 4.303C260.326 3.575 260.662 2.959 260.956 2.455C261.264 1.937 261.593 1.545 261.943 1.279C262.307 1.013 262.762 0.879999 263.308 0.879999C263.672 0.879999 263.973 0.942999 264.211 1.069C264.449 1.181 264.624 1.342 264.736 1.552C264.862 1.762 264.925 2 264.925 2.266C264.925 2.644 264.82 2.952 264.61 3.19C264.414 3.428 264.176 3.582 263.896 3.652C263.84 3.344 263.714 3.078 263.518 2.854C263.336 2.616 263 2.497 262.51 2.497C262.216 2.497 261.929 2.567 261.649 2.707C261.369 2.833 261.082 3.078 260.788 3.442C260.508 3.792 260.2 4.289 259.864 4.933C259.57 5.507 259.29 6.039 259.024 6.529C258.772 7.005 258.499 7.404 258.205 7.726C257.911 8.048 257.554 8.272 257.134 8.398C257.932 8.398 258.597 8.468 259.129 8.608C259.661 8.734 260.109 8.951 260.473 9.259C260.837 9.567 261.166 9.987 261.46 10.519L263.014 13.312C263.35 13.9 263.63 14.376 263.854 14.74C264.092 15.104 264.323 15.37 264.547 15.538C264.771 15.706 265.037 15.79 265.345 15.79H265.429V16H264.799C263.959 16 263.287 15.944 262.783 15.832C262.279 15.706 261.873 15.503 261.565 15.223C261.257 14.929 260.97 14.53 260.704 14.026L258.772 10.372C258.576 10.022 258.394 9.735 258.226 9.511C258.072 9.273 257.897 9.091 257.701 8.965C257.519 8.825 257.288 8.727 257.008 8.671C256.728 8.601 256.378 8.566 255.958 8.566V14.32C255.958 14.67 256.014 14.957 256.126 15.181C256.238 15.391 256.413 15.545 256.651 15.643C256.889 15.741 257.169 15.79 257.491 15.79H257.932V16H251.569ZM266.102 16V15.79H266.774C267.082 15.79 267.334 15.741 267.53 15.643C267.726 15.545 267.901 15.384 268.055 15.16C268.209 14.922 268.356 14.593 268.496 14.173L273.158 1.006H274.502L279.605 14.572C279.731 14.88 279.85 15.125 279.962 15.307C280.088 15.475 280.228 15.601 280.382 15.685C280.55 15.755 280.739 15.79 280.949 15.79H281.159V16H275.069V15.79H275.741C276.203 15.79 276.539 15.734 276.749 15.622C276.973 15.496 277.085 15.279 277.085 14.971C277.085 14.887 277.078 14.803 277.064 14.719C277.05 14.621 277.029 14.516 277.001 14.404C276.987 14.278 276.952 14.152 276.896 14.026L275.636 10.54H270.029L268.853 13.837C268.797 13.963 268.755 14.089 268.727 14.215C268.699 14.341 268.671 14.46 268.643 14.572C268.629 14.67 268.622 14.761 268.622 14.845C268.622 15.195 268.762 15.44 269.042 15.58C269.336 15.72 269.805 15.79 270.449 15.79H271.205V16H266.102ZM270.092 10.33H275.552L274.082 6.298C273.928 5.85 273.774 5.409 273.62 4.975C273.466 4.527 273.319 4.093 273.179 3.673C273.053 3.253 272.941 2.854 272.843 2.476C272.745 2.77 272.647 3.057 272.549 3.337C272.465 3.617 272.374 3.897 272.276 4.177C272.178 4.457 272.073 4.744 271.961 5.038C271.849 5.332 271.737 5.647 271.625 5.983L270.092 10.33ZM281.449 16V15.79H281.512C281.68 15.79 281.841 15.755 281.995 15.685C282.149 15.615 282.31 15.489 282.478 15.307C282.66 15.111 282.863 14.852 283.087 14.53C283.325 14.194 283.598 13.767 283.906 13.249L286.51 8.944C286.034 8.79 285.558 8.559 285.082 8.251C284.62 7.929 284.228 7.502 283.906 6.97C283.598 6.438 283.444 5.752 283.444 4.912C283.444 4.072 283.64 3.365 284.032 2.791C284.438 2.203 285.047 1.762 285.859 1.468C286.685 1.16 287.714 1.006 288.946 1.006H294.91V1.216H294.469C294.133 1.216 293.853 1.265 293.629 1.363C293.405 1.447 293.23 1.594 293.104 1.804C292.978 2 292.915 2.266 292.915 2.602V14.341C292.915 14.691 292.978 14.971 293.104 15.181C293.23 15.391 293.405 15.545 293.629 15.643C293.853 15.741 294.133 15.79 294.469 15.79H294.91V16H288.484V15.79H288.925C289.261 15.79 289.541 15.741 289.765 15.643C289.989 15.545 290.157 15.391 290.269 15.181C290.395 14.971 290.458 14.691 290.458 14.341V9.112H289.03L286.132 14.068C285.894 14.474 285.656 14.803 285.418 15.055C285.18 15.307 284.907 15.503 284.599 15.643C284.305 15.783 283.934 15.881 283.486 15.937C283.052 15.979 282.513 16 281.869 16H281.449ZM288.862 8.902H290.458V1.216H289.114C288.4 1.216 287.812 1.349 287.35 1.615C286.902 1.881 286.573 2.294 286.363 2.854C286.153 3.414 286.048 4.149 286.048 5.059C286.048 6.403 286.272 7.383 286.72 7.999C287.168 8.601 287.882 8.902 288.862 8.902Z" fill="white"/>
</svg>
