<svg width="869" height="59" viewBox="0 0 869 59" fill="none" xmlns="http://www.w3.org/2000/svg">
<path d="M0.232 45V44.38H1.534C2.526 44.38 3.35267 44.2353 4.014 43.946C4.71667 43.6567 5.23333 43.202 5.564 42.582C5.89467 41.9207 6.06 41.0733 6.06 40.04V5.506C6.06 4.514 5.89467 3.708 5.564 3.088C5.23333 2.468 4.71667 2.034 4.014 1.786C3.35267 1.49666 2.526 1.352 1.534 1.352H0.232V0.731997H19.204V1.352H17.902C16.9513 1.352 16.1247 1.49666 15.422 1.786C14.7193 2.07533 14.182 2.55066 13.81 3.212C13.4793 3.832 13.314 4.65866 13.314 5.692V34.522L32.782 9.784V5.692C32.782 4.65866 32.596 3.832 32.224 3.212C31.8933 2.55066 31.3973 2.07533 30.736 1.786C30.0747 1.49666 29.2273 1.352 28.194 1.352H26.892V0.731997H45.864V1.352H44.562C43.6113 1.352 42.7847 1.49666 42.082 1.786C41.4207 2.034 40.904 2.468 40.532 3.088C40.2013 3.708 40.036 4.514 40.036 5.506V40.04C40.036 41.0733 40.2013 41.9207 40.532 42.582C40.904 43.202 41.4207 43.6567 42.082 43.946C42.7847 44.2353 43.6113 44.38 44.562 44.38H45.864V45H26.892V44.38H28.194C29.2273 44.38 30.0747 44.2353 30.736 43.946C31.3973 43.6567 31.8933 43.202 32.224 42.582C32.596 41.9207 32.782 41.0733 32.782 40.04V10.776L13.314 35.514V40.04C13.314 41.0733 13.4793 41.9207 13.81 42.582C14.182 43.202 14.7193 43.6567 15.422 43.946C16.1247 44.2353 16.9513 44.38 17.902 44.38H19.204V45H0.232ZM51.4217 45V44.38H52.7237C53.7157 44.38 54.5424 44.2353 55.2037 43.946C55.9064 43.6567 56.4231 43.202 56.7537 42.582C57.1257 41.9207 57.3117 41.0733 57.3117 40.04V5.444C57.3117 4.452 57.1257 3.66666 56.7537 3.088C56.4231 2.468 55.9064 2.034 55.2037 1.786C54.5424 1.49666 53.7157 1.352 52.7237 1.352H51.4217V0.731997H69.2777C74.6511 0.731997 78.6191 1.88933 81.1817 4.204C83.7444 6.51866 85.0257 9.70133 85.0257 13.752C85.0257 15.612 84.7157 17.3893 84.0957 19.084C83.5171 20.7373 82.5457 22.2253 81.1817 23.548C79.8591 24.8707 78.1024 25.9247 75.9117 26.71C73.7211 27.454 71.0551 27.826 67.9137 27.826H64.5037V40.102C64.5037 41.1353 64.6897 41.962 65.0617 42.582C65.4337 43.202 65.9504 43.6567 66.6117 43.946C67.3144 44.2353 68.1411 44.38 69.0917 44.38H70.7657V45H51.4217ZM67.2937 27.206C69.1124 27.206 70.6417 26.9787 71.8817 26.524C73.1631 26.028 74.1964 25.2633 74.9817 24.23C75.7671 23.1553 76.3457 21.7913 76.7177 20.138C77.0897 18.4433 77.2757 16.418 77.2757 14.062C77.2757 11.0033 76.9657 8.544 76.3457 6.684C75.7671 4.824 74.8164 3.48066 73.4937 2.654C72.1711 1.786 70.4144 1.352 68.2237 1.352H64.5037V27.206H67.2937ZM90.7472 45V44.38H92.0492C93.0412 44.38 93.8678 44.2353 94.5292 43.946C95.2318 43.6567 95.7485 43.202 96.0792 42.582C96.4098 41.9207 96.5752 41.0733 96.5752 40.04V5.506C96.5752 4.514 96.4098 3.708 96.0792 3.088C95.7485 2.468 95.2318 2.034 94.5292 1.786C93.8678 1.49666 93.0412 1.352 92.0492 1.352H90.7472V0.731997H109.719V1.352H108.417C107.466 1.352 106.64 1.49666 105.937 1.786C105.234 2.07533 104.697 2.55066 104.325 3.212C103.994 3.832 103.829 4.65866 103.829 5.692V34.522L123.297 9.784V5.692C123.297 4.65866 123.111 3.832 122.739 3.212C122.408 2.55066 121.912 2.07533 121.251 1.786C120.59 1.49666 119.742 1.352 118.709 1.352H117.407V0.731997H136.379V1.352H135.077C134.126 1.352 133.3 1.49666 132.597 1.786C131.936 2.034 131.419 2.468 131.047 3.088C130.716 3.708 130.551 4.514 130.551 5.506V40.04C130.551 41.0733 130.716 41.9207 131.047 42.582C131.419 43.202 131.936 43.6567 132.597 43.946C133.3 44.2353 134.126 44.38 135.077 44.38H136.379V45H117.407V44.38H118.709C119.742 44.38 120.59 44.2353 121.251 43.946C121.912 43.6567 122.408 43.202 122.739 42.582C123.111 41.9207 123.297 41.0733 123.297 40.04V10.776L103.829 35.514V40.04C103.829 41.0733 103.994 41.9207 104.325 42.582C104.697 43.202 105.234 43.6567 105.937 43.946C106.64 44.2353 107.466 44.38 108.417 44.38H109.719V45H90.7472ZM141.999 45V44.38H143.301C144.293 44.38 145.12 44.2353 145.781 43.946C146.484 43.6567 147 43.202 147.331 42.582C147.662 41.9207 147.827 41.0733 147.827 40.04V5.506C147.827 4.514 147.662 3.708 147.331 3.088C147 2.468 146.484 2.034 145.781 1.786C145.12 1.49666 144.293 1.352 143.301 1.352H141.999V0.731997H160.971V1.352H159.669C158.718 1.352 157.892 1.49666 157.189 1.786C156.486 2.07533 155.949 2.55066 155.577 3.212C155.246 3.832 155.081 4.65866 155.081 5.692V21.564H174.053V5.692C174.053 4.65866 173.888 3.832 173.557 3.212C173.226 2.55066 172.73 2.07533 172.069 1.786C171.408 1.49666 170.56 1.352 169.527 1.352H168.225V0.731997H187.197V1.352H185.895C184.944 1.352 184.118 1.49666 183.415 1.786C182.754 2.034 182.237 2.468 181.865 3.088C181.493 3.708 181.307 4.514 181.307 5.506V40.04C181.307 41.0733 181.493 41.9207 181.865 42.582C182.237 43.202 182.754 43.6567 183.415 43.946C184.118 44.2353 184.944 44.38 185.895 44.38H187.197V45H168.225V44.38H169.527C170.56 44.38 171.408 44.2353 172.069 43.946C172.73 43.6567 173.226 43.202 173.557 42.582C173.888 41.9207 174.053 41.0733 174.053 40.04V22.184H155.081V40.04C155.081 41.0733 155.246 41.9207 155.577 42.582C155.949 43.202 156.486 43.6567 157.189 43.946C157.892 44.2353 158.718 44.38 159.669 44.38H160.971V45H141.999ZM190.657 45V44.38H192.641C193.55 44.38 194.294 44.2353 194.873 43.946C195.451 43.6567 195.968 43.1813 196.423 42.52C196.877 41.8173 197.311 40.846 197.725 39.606L211.489 0.731997H215.457L230.523 40.784C230.895 41.6933 231.246 42.4167 231.577 42.954C231.949 43.45 232.362 43.822 232.817 44.07C233.313 44.2767 233.871 44.38 234.491 44.38H235.111V45H217.131V44.38H219.115C220.479 44.38 221.471 44.2147 222.091 43.884C222.752 43.512 223.083 42.8713 223.083 41.962C223.083 41.714 223.062 41.466 223.021 41.218C222.979 40.9287 222.917 40.6187 222.835 40.288C222.793 39.916 222.69 39.544 222.525 39.172L218.805 28.88H202.251L198.779 38.614C198.613 38.986 198.489 39.358 198.407 39.73C198.324 40.102 198.241 40.4533 198.159 40.784C198.117 41.0733 198.097 41.342 198.097 41.59C198.097 42.6233 198.51 43.3467 199.337 43.76C200.205 44.1733 201.589 44.38 203.491 44.38H205.723V45H190.657ZM202.437 28.26H218.557L214.217 16.356C213.762 15.0333 213.307 13.7313 212.853 12.45C212.398 11.1273 211.964 9.846 211.551 8.606C211.179 7.366 210.848 6.188 210.559 5.072C210.269 5.94 209.98 6.78733 209.691 7.614C209.443 8.44067 209.174 9.26733 208.885 10.094C208.595 10.9207 208.285 11.768 207.955 12.636C207.624 13.504 207.293 14.434 206.963 15.426L202.437 28.26ZM253.673 45V44.38H254.975C255.967 44.38 256.793 44.2353 257.455 43.946C258.157 43.6567 258.674 43.202 259.005 42.582C259.377 41.9207 259.563 41.0733 259.563 40.04V5.444C259.563 4.452 259.377 3.66666 259.005 3.088C258.674 2.468 258.157 2.034 257.455 1.786C256.793 1.49666 255.967 1.352 254.975 1.352H253.673V0.731997H271.529C276.902 0.731997 280.87 1.88933 283.433 4.204C285.995 6.51866 287.277 9.70133 287.277 13.752C287.277 15.612 286.967 17.3893 286.347 19.084C285.768 20.7373 284.797 22.2253 283.433 23.548C282.11 24.8707 280.353 25.9247 278.163 26.71C275.972 27.454 273.306 27.826 270.165 27.826H266.755V40.102C266.755 41.1353 266.941 41.962 267.313 42.582C267.685 43.202 268.201 43.6567 268.863 43.946C269.565 44.2353 270.392 44.38 271.343 44.38H273.017V45H253.673ZM269.545 27.206C271.363 27.206 272.893 26.9787 274.133 26.524C275.414 26.028 276.447 25.2633 277.233 24.23C278.018 23.1553 278.597 21.7913 278.969 20.138C279.341 18.4433 279.527 16.418 279.527 14.062C279.527 11.0033 279.217 8.544 278.597 6.684C278.018 4.824 277.067 3.48066 275.745 2.654C274.422 1.786 272.665 1.352 270.475 1.352H266.755V27.206H269.545ZM314.14 45.62C309.676 45.62 305.956 44.6693 302.98 42.768C300.045 40.8667 297.855 38.2007 296.408 34.77C294.961 31.3393 294.238 27.33 294.238 22.742C294.238 18.154 294.961 14.1653 296.408 10.776C297.855 7.38667 300.066 4.762 303.042 2.902C306.018 1.00067 309.738 0.0499985 314.202 0.0499985C318.459 0.0499985 322.055 1.00067 324.99 2.902C327.966 4.762 330.219 7.40733 331.748 10.838C333.277 14.2273 334.042 18.216 334.042 22.804C334.042 27.392 333.257 31.4013 331.686 34.832C330.157 38.2213 327.904 40.8667 324.928 42.768C321.993 44.6693 318.397 45.62 314.14 45.62ZM314.14 45C316.248 45 318.046 44.5867 319.534 43.76C321.063 42.892 322.303 41.5693 323.254 39.792C324.246 37.9733 324.969 35.6587 325.424 32.848C325.92 30.0373 326.168 26.6893 326.168 22.804C326.168 18.9187 325.92 15.5913 325.424 12.822C324.969 10.0113 324.267 7.71733 323.316 5.94C322.365 4.12133 321.125 2.79867 319.596 1.972C318.108 1.104 316.31 0.669998 314.202 0.669998C312.094 0.669998 310.275 1.104 308.746 1.972C307.217 2.79867 305.956 4.12133 304.964 5.94C303.972 7.71733 303.228 10.0113 302.732 12.822C302.277 15.5913 302.05 18.9187 302.05 22.804C302.05 26.6893 302.277 30.0373 302.732 32.848C303.228 35.6587 303.951 37.9733 304.902 39.792C305.894 41.5693 307.155 42.892 308.684 43.76C310.213 44.5867 312.032 45 314.14 45ZM337.537 45V44.38H337.785C338.695 44.38 339.48 44.132 340.141 43.636C340.803 43.14 341.464 42.3547 342.125 41.28C342.828 40.2053 343.655 38.8 344.605 37.064L349.255 28.818C350.123 27.2473 351.095 26.0073 352.169 25.098C353.244 24.1887 354.567 23.548 356.137 23.176C357.708 22.7627 359.671 22.556 362.027 22.556C360.787 22.184 359.713 21.5227 358.803 20.572C357.935 19.6213 357.129 18.4433 356.385 17.038C355.641 15.5913 354.815 14.0207 353.905 12.326C352.955 10.4247 352.045 8.95733 351.177 7.924C350.309 6.84933 349.462 6.126 348.635 5.754C347.85 5.34067 347.003 5.134 346.093 5.134C344.729 5.134 343.758 5.48533 343.179 6.188C342.601 6.84933 342.208 7.63467 342.001 8.544C341.175 8.33733 340.472 7.88266 339.893 7.18C339.315 6.47733 339.025 5.568 339.025 4.452C339.025 3.66666 339.191 2.964 339.521 2.344C339.893 1.724 340.431 1.24867 341.133 0.917998C341.836 0.545998 342.725 0.359998 343.799 0.359998C345.453 0.359998 346.796 0.752665 347.829 1.538C348.863 2.32333 349.834 3.48066 350.743 5.01C351.653 6.498 352.645 8.31666 353.719 10.466C354.959 12.9873 356.013 15.054 356.881 16.666C357.749 18.2367 358.638 19.4767 359.547 20.386C360.043 20.8407 360.539 21.2127 361.035 21.502C361.573 21.7913 362.172 22.0187 362.833 22.184C363.536 22.308 364.301 22.3907 365.127 22.432V5.506C365.127 4.514 364.962 3.708 364.631 3.088C364.301 2.468 363.784 2.034 363.081 1.786C362.379 1.49666 361.552 1.352 360.601 1.352H359.733V0.731997H377.093V1.352H376.225C375.275 1.352 374.448 1.49666 373.745 1.786C373.043 2.07533 372.526 2.55066 372.195 3.212C371.865 3.832 371.699 4.65866 371.699 5.692V22.432C372.65 22.432 373.477 22.37 374.179 22.246C374.923 22.0807 375.585 21.8533 376.163 21.564C376.742 21.2747 377.279 20.882 377.775 20.386C378.726 19.4767 379.615 18.2367 380.441 16.666C381.309 15.054 382.384 12.9873 383.665 10.466C384.74 8.31666 385.711 6.498 386.579 5.01C387.489 3.48066 388.481 2.32333 389.555 1.538C390.63 0.752665 391.953 0.359998 393.523 0.359998C394.639 0.359998 395.549 0.545998 396.251 0.917998C396.954 1.24867 397.471 1.724 397.801 2.344C398.132 2.964 398.297 3.66666 398.297 4.452C398.297 5.568 398.008 6.47733 397.429 7.18C396.851 7.88266 396.148 8.33733 395.321 8.544C395.156 7.63467 394.784 6.84933 394.205 6.188C393.627 5.48533 392.635 5.134 391.229 5.134C390.361 5.134 389.514 5.34067 388.687 5.754C387.861 6.126 387.013 6.84933 386.145 7.924C385.319 8.95733 384.409 10.4247 383.417 12.326C382.549 14.0207 381.723 15.5913 380.937 17.038C380.193 18.4433 379.387 19.6213 378.519 20.572C377.651 21.5227 376.597 22.184 375.357 22.556C377.713 22.556 379.677 22.7627 381.247 23.176C382.818 23.548 384.141 24.1887 385.215 25.098C386.29 26.0073 387.261 27.2473 388.129 28.818L392.717 37.064C393.709 38.8 394.536 40.2053 395.197 41.28C395.9 42.3547 396.582 43.14 397.243 43.636C397.905 44.132 398.69 44.38 399.599 44.38H399.785V45H397.987C395.466 45 393.461 44.8347 391.973 44.504C390.485 44.132 389.287 43.5327 388.377 42.706C387.509 41.838 386.683 40.66 385.897 39.172L380.193 28.384C379.615 27.3507 379.077 26.5033 378.581 25.842C378.127 25.1393 377.61 24.602 377.031 24.23C376.453 23.8167 375.729 23.5273 374.861 23.362C374.035 23.1553 372.981 23.052 371.699 23.052V40.04C371.699 41.0733 371.865 41.9207 372.195 42.582C372.526 43.202 373.043 43.6567 373.745 43.946C374.448 44.2353 375.275 44.38 376.225 44.38H377.093V45H359.733V44.38H360.601C361.552 44.38 362.379 44.2353 363.081 43.946C363.784 43.6567 364.301 43.202 364.631 42.582C364.962 41.9207 365.127 41.0733 365.127 40.04V23.052C363.929 23.0933 362.937 23.2173 362.151 23.424C361.366 23.5893 360.705 23.8787 360.167 24.292C359.63 24.7053 359.134 25.2427 358.679 25.904C358.225 26.5653 357.729 27.392 357.191 28.384L351.487 39.172C350.702 40.66 349.855 41.838 348.945 42.706C348.036 43.5327 346.837 44.132 345.349 44.504C343.861 44.8347 341.877 45 339.397 45H337.537ZM401.279 58.02V44.38H407.169C408.822 40.9907 410.31 37.7873 411.633 34.77C412.956 31.7113 414.113 28.8593 415.105 26.214C416.097 23.5273 416.903 20.9853 417.523 18.588C418.184 16.1907 418.66 13.938 418.949 11.83C419.28 9.68067 419.445 7.65533 419.445 5.754C419.445 4.43133 419.218 3.46 418.763 2.84C418.308 2.22 417.668 1.82733 416.841 1.662C416.056 1.45533 415.126 1.352 414.051 1.352H411.075V0.731997H440.277V1.352H440.029C438.996 1.352 438.107 1.49666 437.363 1.786C436.619 2.07533 436.061 2.55066 435.689 3.212C435.317 3.832 435.131 4.67933 435.131 5.754V39.916C435.131 41.1973 435.358 42.1687 435.813 42.83C436.268 43.45 436.888 43.8633 437.673 44.07C438.458 44.2767 439.306 44.38 440.215 44.38H441.455V58.02H440.835C440.835 55.7053 440.628 53.7213 440.215 52.068C439.843 50.456 439.285 49.1127 438.541 48.038C437.797 47.0047 436.867 46.24 435.751 45.744C434.676 45.248 433.416 45 431.969 45H410.765C409.36 45 408.099 45.248 406.983 45.744C405.867 46.24 404.937 47.0047 404.193 48.038C403.449 49.1127 402.87 50.456 402.457 52.068C402.085 53.7213 401.899 55.7053 401.899 58.02H401.279ZM407.851 44.38H427.939V1.352H420.499C420.499 4.65866 420.23 7.94467 419.693 11.21C419.197 14.4753 418.432 17.8233 417.399 21.254C416.366 24.6847 415.043 28.3013 413.431 32.104C411.86 35.9067 410 39.9987 407.851 44.38ZM446.691 45V44.38H447.993C448.985 44.38 449.812 44.2353 450.473 43.946C451.176 43.6567 451.692 43.202 452.023 42.582C452.395 41.962 452.581 41.1353 452.581 40.102V5.506C452.581 4.514 452.395 3.708 452.023 3.088C451.692 2.468 451.176 2.034 450.473 1.786C449.812 1.49666 448.985 1.352 447.993 1.352H446.691V0.731997H478.745L479.117 11.706H478.497L478.373 9.66C478.208 7.59333 477.815 5.96067 477.195 4.762C476.616 3.522 475.686 2.654 474.405 2.158C473.124 1.62066 471.429 1.352 469.321 1.352H459.835V21.502H475.149V22.122H459.835V44.38H470.995C473.227 44.38 475.004 44.132 476.327 43.636C477.691 43.0987 478.683 42.2307 479.303 41.032C479.923 39.792 480.316 38.1387 480.481 36.072L480.605 34.026H481.225L480.791 45H446.691ZM508.186 45.62C503.805 45.62 500.126 44.6693 497.15 42.768C494.216 40.8667 492.004 38.2213 490.516 34.832C489.07 31.4427 488.346 27.4747 488.346 22.928C488.346 18.4227 489.09 14.4547 490.578 11.024C492.066 7.59333 494.319 4.92733 497.336 3.026C500.354 1.08333 504.177 0.111998 508.806 0.111998C511.576 0.111998 513.911 0.442665 515.812 1.104C517.714 1.76533 519.16 2.63333 520.152 3.708C521.144 4.78266 521.64 5.98133 521.64 7.304C521.64 8.70933 521.082 9.80467 519.966 10.59C518.85 11.3753 517.404 11.768 515.626 11.768C515.626 9.12267 515.358 6.994 514.82 5.382C514.283 3.77 513.436 2.61266 512.278 1.91C511.162 1.166 509.674 0.793996 507.814 0.793996C505.086 0.793996 502.854 1.6 501.118 3.212C499.424 4.824 498.184 7.26266 497.398 10.528C496.613 13.752 496.22 17.8233 496.22 22.742C496.22 27.7433 496.654 31.8973 497.522 35.204C498.432 38.4693 499.816 40.9287 501.676 42.582C503.578 44.194 506.037 45 509.054 45C510.956 45 512.609 44.6693 514.014 44.008C515.461 43.3467 516.66 42.334 517.61 40.97C518.561 39.5647 519.326 37.7873 519.904 35.638C520.442 35.8447 520.834 36.1547 521.082 36.568C521.33 36.9813 521.454 37.4773 521.454 38.056C521.454 38.8827 521.186 39.73 520.648 40.598C520.152 41.466 519.367 42.2927 518.292 43.078C517.218 43.822 515.833 44.442 514.138 44.938C512.485 45.3927 510.501 45.62 508.186 45.62ZM534.903 45V44.38H536.205C537.197 44.38 538.023 44.2353 538.685 43.946C539.387 43.6567 539.904 43.202 540.235 42.582C540.607 41.9207 540.793 41.0733 540.793 40.04V1.352H536.019C533.911 1.352 532.195 1.62066 530.873 2.158C529.591 2.654 528.641 3.522 528.021 4.762C527.442 5.96067 527.091 7.59333 526.967 9.66L526.781 11.892H526.161L526.595 0.731997H562.369L562.741 11.892H562.121L561.997 9.66C561.873 7.59333 561.501 5.96067 560.881 4.762C560.261 3.522 559.31 2.654 558.029 2.158C556.747 1.62066 555.032 1.352 552.883 1.352H548.047V40.04C548.047 41.0733 548.212 41.9207 548.543 42.582C548.873 43.202 549.39 43.6567 550.093 43.946C550.795 44.2353 551.622 44.38 552.573 44.38H553.875V45H534.903ZM567.206 45V44.38H568.508C569.5 44.38 570.327 44.2353 570.988 43.946C571.691 43.6567 572.207 43.202 572.538 42.582C572.91 41.9207 573.096 41.0733 573.096 40.04V5.506C573.096 4.514 572.91 3.72867 572.538 3.15C572.207 2.53 571.691 2.07533 570.988 1.786C570.285 1.49666 569.459 1.352 568.508 1.352H567.206V0.731997H584.256C589.712 0.731997 593.804 1.64133 596.532 3.46C599.301 5.23733 600.686 7.88266 600.686 11.396C600.686 13.4627 600.211 15.2193 599.26 16.666C598.351 18.1127 596.987 19.2493 595.168 20.076C593.349 20.8613 591.076 21.3573 588.348 21.564V21.688C591.655 21.7707 594.341 22.308 596.408 23.3C598.516 24.2507 600.066 25.5527 601.058 27.206C602.05 28.8593 602.546 30.8227 602.546 33.096C602.546 37.064 601.182 40.04 598.454 42.024C595.726 44.008 591.613 45 586.116 45H567.206ZM585.806 44.38C589.071 44.38 591.386 43.512 592.75 41.776C594.155 40.04 594.858 37.1673 594.858 33.158C594.858 30.4713 594.548 28.3427 593.928 26.772C593.349 25.16 592.399 23.982 591.076 23.238C589.795 22.494 588.079 22.122 585.93 22.122H580.288V44.38H585.806ZM584.07 21.502C586.219 21.502 587.935 21.1713 589.216 20.51C590.539 19.8487 591.489 18.8153 592.068 17.41C592.688 15.9633 592.998 14.062 592.998 11.706C592.998 7.94467 592.295 5.27867 590.89 3.708C589.526 2.13733 587.211 1.352 583.946 1.352H580.288V21.502H584.07ZM609.315 45V44.38H610.617C611.609 44.38 612.436 44.2353 613.097 43.946C613.8 43.6567 614.316 43.202 614.647 42.582C615.019 41.962 615.205 41.1353 615.205 40.102V5.506C615.205 4.514 615.019 3.708 614.647 3.088C614.316 2.468 613.8 2.034 613.097 1.786C612.436 1.49666 611.609 1.352 610.617 1.352H609.315V0.731997H641.369L641.741 11.706H641.121L640.997 9.66C640.832 7.59333 640.439 5.96067 639.819 4.762C639.24 3.522 638.31 2.654 637.029 2.158C635.748 1.62066 634.053 1.352 631.945 1.352H622.459V21.502H637.773V22.122H622.459V44.38H633.619C635.851 44.38 637.628 44.132 638.951 43.636C640.315 43.0987 641.307 42.2307 641.927 41.032C642.547 39.792 642.94 38.1387 643.105 36.072L643.229 34.026H643.849L643.415 45H609.315ZM649.73 45V44.38H651.032C652.024 44.38 652.851 44.2353 653.512 43.946C654.215 43.6567 654.732 43.202 655.062 42.582C655.393 41.9207 655.558 41.0733 655.558 40.04V5.506C655.558 4.514 655.393 3.708 655.062 3.088C654.732 2.468 654.215 2.034 653.512 1.786C652.851 1.49666 652.024 1.352 651.032 1.352H649.73V0.731997H668.702V1.352H667.4C666.45 1.352 665.623 1.49666 664.92 1.786C664.218 2.07533 663.68 2.55066 663.308 3.212C662.978 3.832 662.812 4.65866 662.812 5.692V21.564H681.784V5.692C681.784 4.65866 681.619 3.832 681.288 3.212C680.958 2.55066 680.462 2.07533 679.8 1.786C679.139 1.49666 678.292 1.352 677.258 1.352H675.956V0.731997H694.928V1.352H693.626C692.676 1.352 691.849 1.49666 691.146 1.786C690.485 2.034 689.968 2.468 689.596 3.088C689.224 3.708 689.038 4.514 689.038 5.506V40.04C689.038 41.0733 689.224 41.9207 689.596 42.582C689.968 43.202 690.485 43.6567 691.146 43.946C691.849 44.2353 692.676 44.38 693.626 44.38H694.928V45H675.956V44.38H677.258C678.292 44.38 679.139 44.2353 679.8 43.946C680.462 43.6567 680.958 43.202 681.288 42.582C681.619 41.9207 681.784 41.0733 681.784 40.04V22.184H662.812V40.04C662.812 41.0733 662.978 41.9207 663.308 42.582C663.68 43.202 664.218 43.6567 664.92 43.946C665.623 44.2353 666.45 44.38 667.4 44.38H668.702V45H649.73ZM721.638 45.62C717.257 45.62 713.578 44.6693 710.602 42.768C707.668 40.8667 705.456 38.2213 703.968 34.832C702.522 31.4427 701.798 27.4747 701.798 22.928C701.798 18.4227 702.542 14.4547 704.03 11.024C705.518 7.59333 707.771 4.92733 710.788 3.026C713.806 1.08333 717.629 0.111998 722.258 0.111998C725.028 0.111998 727.363 0.442665 729.264 1.104C731.166 1.76533 732.612 2.63333 733.604 3.708C734.596 4.78266 735.092 5.98133 735.092 7.304C735.092 8.70933 734.534 9.80467 733.418 10.59C732.302 11.3753 730.856 11.768 729.078 11.768C729.078 9.12267 728.81 6.994 728.272 5.382C727.735 3.77 726.888 2.61266 725.73 1.91C724.614 1.166 723.126 0.793996 721.266 0.793996C718.538 0.793996 716.306 1.6 714.57 3.212C712.876 4.824 711.636 7.26266 710.85 10.528C710.065 13.752 709.672 17.8233 709.672 22.742C709.672 27.7433 710.106 31.8973 710.974 35.204C711.884 38.4693 713.268 40.9287 715.128 42.582C717.03 44.194 719.489 45 722.506 45C724.408 45 726.061 44.6693 727.466 44.008C728.913 43.3467 730.112 42.334 731.062 40.97C732.013 39.5647 732.778 37.7873 733.356 35.638C733.894 35.8447 734.286 36.1547 734.534 36.568C734.782 36.9813 734.906 37.4773 734.906 38.056C734.906 38.8827 734.638 39.73 734.1 40.598C733.604 41.466 732.819 42.2927 731.744 43.078C730.67 43.822 729.285 44.442 727.59 44.938C725.937 45.3927 723.953 45.62 721.638 45.62ZM740.729 45V44.38H742.031C743.023 44.38 743.849 44.2353 744.511 43.946C745.213 43.6567 745.73 43.202 746.061 42.582C746.433 41.9207 746.619 41.0733 746.619 40.04V5.506C746.619 4.514 746.433 3.708 746.061 3.088C745.73 2.468 745.213 2.034 744.511 1.786C743.849 1.49666 743.023 1.352 742.031 1.352H740.729V0.731997H759.515V1.352H758.213C757.262 1.352 756.435 1.49666 755.733 1.786C755.03 2.07533 754.513 2.55066 754.183 3.212C753.852 3.832 753.687 4.65866 753.687 5.692V22.432C754.596 22.432 755.402 22.37 756.105 22.246C756.807 22.0807 757.448 21.8533 758.027 21.564C758.605 21.2747 759.122 20.882 759.577 20.386C760.569 19.4767 761.478 18.2367 762.305 16.666C763.131 15.054 764.185 12.9873 765.467 10.466C766.583 8.31666 767.575 6.498 768.443 5.01C769.352 3.48066 770.323 2.32333 771.357 1.538C772.431 0.752665 773.775 0.359998 775.387 0.359998C776.461 0.359998 777.35 0.545998 778.053 0.917998C778.755 1.24867 779.272 1.724 779.603 2.344C779.975 2.964 780.161 3.66666 780.161 4.452C780.161 5.568 779.851 6.47733 779.231 7.18C778.652 7.88266 777.949 8.33733 777.123 8.544C776.957 7.63467 776.585 6.84933 776.007 6.188C775.469 5.48533 774.477 5.134 773.031 5.134C772.163 5.134 771.315 5.34067 770.489 5.754C769.662 6.126 768.815 6.84933 767.947 7.924C767.12 8.95733 766.211 10.4247 765.219 12.326C764.351 14.0207 763.524 15.5913 762.739 17.038C761.995 18.4433 761.189 19.6213 760.321 20.572C759.453 21.5227 758.399 22.184 757.159 22.556C759.515 22.556 761.478 22.7627 763.049 23.176C764.619 23.548 765.942 24.1887 767.017 25.098C768.091 26.0073 769.063 27.2473 769.931 28.818L774.519 37.064C775.511 38.8 776.337 40.2053 776.999 41.28C777.701 42.3547 778.383 43.14 779.045 43.636C779.706 44.132 780.491 44.38 781.401 44.38H781.649V45H779.789C777.309 45 775.325 44.8347 773.837 44.504C772.349 44.132 771.15 43.5327 770.241 42.706C769.331 41.838 768.484 40.66 767.699 39.172L761.995 28.384C761.416 27.3507 760.879 26.5033 760.383 25.842C759.928 25.1393 759.411 24.602 758.833 24.23C758.295 23.8167 757.613 23.5273 756.787 23.362C755.96 23.1553 754.927 23.052 753.687 23.052V40.04C753.687 41.0733 753.852 41.9207 754.183 42.582C754.513 43.202 755.03 43.6567 755.733 43.946C756.435 44.2353 757.262 44.38 758.213 44.38H759.515V45H740.729ZM783.636 45V44.38H785.62C786.529 44.38 787.273 44.2353 787.852 43.946C788.431 43.6567 788.947 43.1813 789.402 42.52C789.857 41.8173 790.291 40.846 790.704 39.606L804.468 0.731997H808.436L823.502 40.784C823.874 41.6933 824.225 42.4167 824.556 42.954C824.928 43.45 825.341 43.822 825.796 44.07C826.292 44.2767 826.85 44.38 827.47 44.38H828.09V45H810.11V44.38H812.094C813.458 44.38 814.45 44.2147 815.07 43.884C815.731 43.512 816.062 42.8713 816.062 41.962C816.062 41.714 816.041 41.466 816 41.218C815.959 40.9287 815.897 40.6187 815.814 40.288C815.773 39.916 815.669 39.544 815.504 39.172L811.784 28.88H795.23L791.758 38.614C791.593 38.986 791.469 39.358 791.386 39.73C791.303 40.102 791.221 40.4533 791.138 40.784C791.097 41.0733 791.076 41.342 791.076 41.59C791.076 42.6233 791.489 43.3467 792.316 43.76C793.184 44.1733 794.569 44.38 796.47 44.38H798.702V45H783.636ZM795.416 28.26H811.536L807.196 16.356C806.741 15.0333 806.287 13.7313 805.832 12.45C805.377 11.1273 804.943 9.846 804.53 8.606C804.158 7.366 803.827 6.188 803.538 5.072C803.249 5.94 802.959 6.78733 802.67 7.614C802.422 8.44067 802.153 9.26733 801.864 10.094C801.575 10.9207 801.265 11.768 800.934 12.636C800.603 13.504 800.273 14.434 799.942 15.426L795.416 28.26ZM828.944 45V44.38H829.13C829.626 44.38 830.101 44.2767 830.556 44.07C831.011 43.8633 831.486 43.4913 831.982 42.954C832.519 42.3753 833.119 41.6107 833.78 40.66C834.483 39.668 835.289 38.4073 836.198 36.878L843.886 24.168C842.481 23.7133 841.075 23.0313 839.67 22.122C838.306 21.1713 837.149 19.9107 836.198 18.34C835.289 16.7693 834.834 14.744 834.834 12.264C834.834 9.784 835.413 7.69667 836.57 6.002C837.769 4.266 839.567 2.964 841.964 2.096C844.403 1.18666 847.441 0.731997 851.078 0.731997H868.686V1.352H867.384C866.392 1.352 865.565 1.49666 864.904 1.786C864.243 2.034 863.726 2.468 863.354 3.088C862.982 3.66666 862.796 4.452 862.796 5.444V40.102C862.796 41.1353 862.982 41.962 863.354 42.582C863.726 43.202 864.243 43.6567 864.904 43.946C865.565 44.2353 866.392 44.38 867.384 44.38H868.686V45H849.714V44.38H851.016C852.008 44.38 852.835 44.2353 853.496 43.946C854.157 43.6567 854.653 43.202 854.984 42.582C855.356 41.962 855.542 41.1353 855.542 40.102V24.664H851.326L842.77 39.296C842.067 40.4947 841.365 41.466 840.662 42.21C839.959 42.954 839.153 43.5327 838.244 43.946C837.376 44.3593 836.281 44.6487 834.958 44.814C833.677 44.938 832.085 45 830.184 45H828.944ZM850.83 24.044H855.542V1.352H851.574C849.466 1.352 847.73 1.74466 846.366 2.53C845.043 3.31533 844.072 4.53467 843.452 6.188C842.832 7.84133 842.522 10.0113 842.522 12.698C842.522 16.666 843.183 19.5593 844.506 21.378C845.829 23.1553 847.937 24.044 850.83 24.044Z" fill="white"/>
</svg>
